<svg width="37" height="42" viewBox="0 0 37 42" fill="none" xmlns="http://www.w3.org/2000/svg">
<path d="M33.9419 34.8774C32.5349 31.0963 23.9295 29.2905 22.4228 28.1947C20.4882 26.7878 21.1036 22.1275 21.1036 22.1275L17.9382 22.2108L14.7725 22.1275C14.7725 22.1275 15.3882 26.7878 13.4537 28.1947C11.9469 29.2905 3.34147 31.0963 1.93456 34.8774C0.52765 38.6585 0 42 0 42H17.7624H18.114H35.8762C35.8762 42 35.3488 38.6585 33.9419 34.8774Z" fill="#A1444B"/>
<path d="M14.1863 27.3262C15.668 27.1747 17.1577 26.8742 18.4479 26.1526C19.3885 25.6266 20.2353 25.0055 21.0214 24.3063C20.9747 23.1088 21.1037 22.1273 21.1037 22.1273L17.9383 22.2106L14.7726 22.1273C14.7726 22.1273 15.2108 25.4441 14.1863 27.3262Z" fill="#7A3134"/>
<path d="M34.1912 34.8251C32.8208 31.142 24.6713 29.3196 22.7618 28.2051C21.2539 29.082 19.4147 29.599 17.4276 29.599C15.7013 29.599 14.0861 29.2089 12.7026 28.5317C10.0265 29.6707 3.19311 31.4808 1.94876 34.8251C0.531438 38.6339 0 42 0 42H17.893H18.2472H36.14C36.14 42 35.6086 38.6339 34.1912 34.8251Z" fill="#177DFF"/>
<path d="M12.6227 14.862C12.1116 13.2757 10.9009 13.6429 10.7875 13.6813C10.6688 13.695 9.41731 13.881 9.63358 15.5333C9.85103 17.1957 10.8155 18.0965 11.7198 17.8317C12.6507 17.6843 13.1371 16.4575 12.6227 14.862Z" fill="#7A3134"/>
<path d="M23.095 14.862C23.6063 13.2757 24.8168 13.6429 24.9302 13.6813C25.0489 13.695 26.3004 13.881 26.0844 15.5333C25.8667 17.1957 24.9022 18.0965 23.9979 17.8317C23.0673 17.6843 22.5806 16.4575 23.095 14.862Z" fill="#7A3134"/>
<path d="M24.1505 12.367C23.5169 5.41365 18.2307 5.80312 17.7322 5.85541C17.2336 5.80312 11.9474 5.41365 11.3137 12.367C10.6765 19.3621 13.7921 23.9304 17.7322 23.6791C21.6723 23.9304 24.788 19.3621 24.1505 12.367Z" fill="#A1444B"/>
<path d="M18.083 18.252C18.1015 18.2046 18.1263 18.1642 18.1493 18.1218C18.1713 18.0785 18.198 18.0399 18.224 18.0009C18.2773 17.924 18.3357 17.8525 18.397 17.7839C18.4602 17.7174 18.5226 17.6502 18.5929 17.5909C18.6603 17.5289 18.7332 17.4725 18.8087 17.4191L18.777 17.5104C18.7204 17.0502 18.6681 16.5893 18.6182 16.1279C18.5747 15.6655 18.5226 15.2046 18.4876 14.7411C18.5839 15.1958 18.6629 15.653 18.7505 16.1087C18.8321 16.5656 18.9109 17.0227 18.9857 17.4806L18.9928 17.5232L18.954 17.5722C18.8962 17.6448 18.8361 17.7146 18.7706 17.7785C18.7077 17.8454 18.6372 17.9041 18.5674 17.9635C18.4957 18.0213 18.4209 18.0757 18.3411 18.1247C18.3009 18.1486 18.2609 18.1732 18.2164 18.1928C18.1729 18.2136 18.1313 18.2361 18.083 18.252Z" fill="#7A3134"/>
<path d="M14.4431 14.8461C14.4431 15.3697 14.6376 15.7944 14.8773 15.7944C15.1172 15.7944 15.3115 15.3697 15.3115 14.8461C15.3115 14.3225 15.1172 13.8977 14.8773 13.8977C14.6376 13.8977 14.4431 14.3225 14.4431 14.8461Z" fill="#29202E"/>
<path d="M20.4092 14.8461C20.4092 15.3697 20.6037 15.7944 20.8434 15.7944C21.0833 15.7944 21.2776 15.3697 21.2776 14.8461C21.2776 14.3225 21.0833 13.8977 20.8434 13.8977C20.6037 13.8977 20.4092 14.3225 20.4092 14.8461Z" fill="#29202E"/>
<path d="M13.3774 13.2939C13.3774 13.2939 13.4529 13.0668 13.6876 12.803C13.7494 12.7412 13.8112 12.6657 13.8928 12.6042C13.9704 12.5375 14.0589 12.4738 14.1585 12.4178C14.2531 12.3546 14.3689 12.3153 14.481 12.2682C14.601 12.2391 14.7207 12.1963 14.8501 12.1935C14.914 12.1901 14.9779 12.1854 15.0415 12.1847C15.1052 12.1906 15.1686 12.2003 15.2311 12.2088C15.3581 12.2171 15.4712 12.2753 15.5822 12.3134C15.6932 12.3544 15.7814 12.4284 15.8706 12.4828C15.9622 12.5358 16.0204 12.6198 16.085 12.6806C16.1472 12.7441 16.2024 12.8027 16.2372 12.8671C16.2767 12.9267 16.3065 12.9819 16.3313 13.0261C16.3798 13.1153 16.4026 13.1678 16.4026 13.1678C16.4026 13.1678 16.3472 13.1428 16.2594 13.0961C16.2161 13.0722 16.1631 13.0448 16.1075 13.0098C16.0535 12.9721 15.9816 12.9473 15.9116 12.9123C15.838 12.8841 15.7694 12.8337 15.6847 12.8136C15.6014 12.7919 15.5221 12.749 15.4339 12.7351C15.3451 12.7242 15.2599 12.6899 15.1679 12.6939C15.1227 12.6913 15.0775 12.6899 15.0321 12.6844L14.8946 12.6955C14.8021 12.692 14.7115 12.7273 14.619 12.7367C14.5298 12.7682 14.4361 12.7824 14.3502 12.8202C14.2621 12.851 14.1767 12.8848 14.0965 12.9227C14.0135 12.9554 13.9394 12.9979 13.8653 13.0296C13.7936 13.0677 13.7279 13.1023 13.6697 13.1331C13.6103 13.1657 13.5584 13.1941 13.5156 13.2175C13.4278 13.2663 13.3774 13.2939 13.3774 13.2939Z" fill="#29202E"/>
<path d="M19.3856 13.2939C19.3856 13.2939 19.4609 13.0668 19.6956 12.803C19.7576 12.7412 19.8193 12.6657 19.901 12.6042C19.9786 12.5375 20.0671 12.4738 20.1667 12.4178C20.2613 12.3546 20.3768 12.3153 20.489 12.2682C20.6092 12.2391 20.7286 12.1963 20.8581 12.1935C20.9222 12.1901 20.9861 12.1854 21.0495 12.1847C21.1134 12.1906 21.1766 12.2003 21.239 12.2088C21.3663 12.2171 21.4792 12.2753 21.5904 12.3134C21.7011 12.3544 21.7894 12.4284 21.8786 12.4828C21.9702 12.5358 22.0284 12.6198 22.093 12.6806C22.1554 12.7441 22.2106 12.8027 22.2453 12.8671C22.2846 12.9267 22.3144 12.9819 22.3393 13.0261C22.388 13.1153 22.4105 13.1678 22.4105 13.1678C22.4105 13.1678 22.3554 13.1428 22.2676 13.0961C22.2243 13.0722 22.1713 13.0448 22.1157 13.0098C22.0615 12.9721 21.9898 12.9473 21.9198 12.9123C21.8459 12.8841 21.7773 12.8337 21.6926 12.8136C21.6096 12.7919 21.5303 12.749 21.4418 12.7351C21.3533 12.7242 21.2679 12.6899 21.1761 12.6939C21.1306 12.6913 21.0855 12.6899 21.0403 12.6844L20.9028 12.6955C20.8103 12.692 20.7194 12.7273 20.6269 12.7367C20.5377 12.7682 20.4442 12.7824 20.3583 12.8202C20.2701 12.851 20.1849 12.8848 20.1045 12.9227C20.0216 12.9554 19.9476 12.9979 19.8735 13.0296C19.8016 13.0677 19.736 13.1023 19.6776 13.1331C19.6182 13.1657 19.5664 13.1941 19.5238 13.2175C19.4358 13.2663 19.3856 13.2939 19.3856 13.2939Z" fill="#29202E"/>
<path d="M15.0853 19.2654L20.9446 19.2093C20.9446 19.2093 18.3979 21.5724 15.0853 19.2654Z" fill="white"/>
<path d="M10.9446 8.38123C10.9446 8.38123 10.5896 17.0768 11.5952 21.1584C12.3522 24.2304 14.5529 25.0625 14.5529 25.0625C14.5529 25.0625 19.7584 27.0738 22.657 23.8203C23.4917 22.8833 24.7865 17.9641 24.195 9.15022L22.0654 8.26292C22.0654 8.26292 22.4204 12.5811 23.4851 13.1135C23.4851 13.1135 23.1721 20.8309 21.8288 21.7499C20.7049 22.5189 22.5978 18.2007 20.4091 18.2599C18.2204 18.319 18.1613 18.3782 18.1613 18.3782C18.1613 18.3782 14.2572 17.7275 14.3163 19.2655C14.3755 20.8035 14.7895 21.8091 14.2572 21.8091C13.7248 21.8091 11.7727 20.5669 12.1276 12.4628C12.1276 12.4628 13.2516 12.0488 13.2516 9.20938C13.2516 5.47513 10.9446 8.38123 10.9446 8.38123Z" fill="#29202E"/>
<path d="M13.015 7.90811C13.015 7.90811 14.7167 10.2151 16.7417 10.2151C17.8656 10.2151 16.7417 8.26304 16.7417 8.26304C16.7417 8.26304 18.3388 10.7475 19.9951 10.6883C21.6514 10.6292 20.2317 8.26304 20.2317 8.26304C20.2317 8.26304 21.474 10.8066 23.012 10.6883C24.55 10.57 23.2486 8.08558 23.2486 8.08558C23.2486 8.08558 23.9584 10.7475 25.4373 10.3926C26.9161 10.0376 25.0823 7.73065 25.0823 7.73065C25.0823 7.73065 26.3246 8.91373 26.8569 8.85457C27.3893 8.79542 27.3893 7.19827 25.5556 6.42927C25.5556 6.42927 27.3893 6.37012 27.4485 5.48282C27.5154 4.47744 26.3246 4.12228 23.6035 4.41805C23.6035 4.41805 25.8513 3.4716 25.3781 2.64345C24.9049 1.8153 22.8937 2.99837 22.8937 2.99837C22.8937 2.99837 24.9049 1.87445 23.7218 0.987144C22.7507 0.258846 17.6881 0.277302 14.6122 3.94482C14.6122 3.94482 21.0007 0.57307 20.2317 0.0998411C19.6887 -0.234495 12.0463 1.47315 10.8855 4.71382C9.4658 8.67711 10.5306 10.9249 10.9896 13.6235L13.015 7.90811Z" fill="#29202E"/>
</svg>
