<svg width="44" height="44" viewBox="0 0 44 44" fill="none" xmlns="http://www.w3.org/2000/svg">
<path fill-rule="evenodd" clip-rule="evenodd" d="M26.5137 31.4998H18.1659C15.0996 31.4998 12.7472 30.3922 13.4153 25.9346L14.1934 19.8934C14.6053 17.6691 16.024 16.8179 17.2689 16.8179H27.4474C28.7105 16.8179 30.0469 17.7332 30.5229 19.8934L31.3009 25.9346C31.8684 29.8888 29.5801 31.4998 26.5137 31.4998Z" stroke="#BAC2CC" stroke-width="1.5" stroke-linecap="round" stroke-linejoin="round"/>
<path d="M26.651 16.5982C26.651 14.2122 24.7167 12.2779 22.3307 12.2779V12.2779C21.1817 12.273 20.0781 12.726 19.2639 13.5368C18.4497 14.3475 17.992 15.4492 17.992 16.5982V16.5982" stroke="#BAC2CC" stroke-width="1.5" stroke-linecap="round" stroke-linejoin="round"/>
<path d="M25.2963 21.1017H25.2506" stroke="#BAC2CC" stroke-width="1.5" stroke-linecap="round" stroke-linejoin="round"/>
<path d="M19.4657 21.1017H19.4199" stroke="#BAC2CC" stroke-width="1.5" stroke-linecap="round" stroke-linejoin="round"/>
</svg>
