<svg width="45" height="44" viewBox="0 0 45 44" fill="none" xmlns="http://www.w3.org/2000/svg">
<path d="M28.0734 32.75H16.5934C14.1034 32.75 12.0834 30.73 12.0834 28.24V21.51C12.0834 19.02 14.1034 17 16.5934 17H28.0734C30.5634 17 32.5834 19.02 32.5834 21.51V22.95C32.5834 23.36 32.2434 23.7 31.8334 23.7H29.8134C29.4634 23.7 29.1434 23.83 28.9134 24.07L28.9034 24.08C28.6234 24.35 28.4934 24.72 28.5234 25.1C28.5834 25.76 29.2134 26.29 29.9334 26.29H31.8334C32.2434 26.29 32.5834 26.63 32.5834 27.04V28.23C32.5834 30.73 30.5634 32.75 28.0734 32.75ZM16.5934 18.5C14.9334 18.5 13.5834 19.85 13.5834 21.51V28.24C13.5834 29.9 14.9334 31.25 16.5934 31.25H28.0734C29.7334 31.25 31.0834 29.9 31.0834 28.24V27.8H29.9334C28.4234 27.8 27.1434 26.68 27.0234 25.24C26.9434 24.42 27.2434 23.61 27.8434 23.02C28.3634 22.49 29.0634 22.2 29.8134 22.2H31.0834V21.51C31.0834 19.85 29.7334 18.5 28.0734 18.5H16.5934Z" fill="#BAC2CC"/>
<path d="M12.8334 23.16C12.4234 23.16 12.0834 22.82 12.0834 22.41V17.8401C12.0834 16.3501 13.0234 15 14.4134 14.47L22.3534 11.47C23.1734 11.16 24.0834 11.2701 24.7934 11.7701C25.5134 12.2701 25.9334 13.08 25.9334 13.95V17.75C25.9334 18.16 25.5934 18.5 25.1834 18.5C24.7734 18.5 24.4334 18.16 24.4334 17.75V13.95C24.4334 13.57 24.2534 13.22 23.9334 13C23.6134 12.78 23.2334 12.73 22.8734 12.87L14.9334 15.87C14.1234 16.18 13.5734 16.9701 13.5734 17.8401V22.41C13.5834 22.83 13.2434 23.16 12.8334 23.16Z" fill="#BAC2CC"/>
<path d="M29.9333 27.8002C28.4233 27.8002 27.1433 26.6802 27.0233 25.2402C26.9433 24.4102 27.2433 23.6002 27.8433 23.0102C28.3533 22.4902 29.0533 22.2002 29.8033 22.2002H31.8833C32.8733 22.2302 33.6333 23.0102 33.6333 23.9702V26.0302C33.6333 26.9902 32.8733 27.7702 31.9133 27.8002H29.9333ZM31.8633 23.7002H29.8133C29.4633 23.7002 29.1433 23.8302 28.9133 24.0702C28.6233 24.3502 28.4833 24.7302 28.5233 25.1102C28.5833 25.7702 29.2133 26.3002 29.9333 26.3002H31.8933C32.0233 26.3002 32.1433 26.1802 32.1433 26.0302V23.9702C32.1433 23.8202 32.0233 23.7102 31.8633 23.7002Z" fill="#BAC2CC"/>
<path d="M24.3334 22.75H17.3334C16.9234 22.75 16.5834 22.41 16.5834 22C16.5834 21.59 16.9234 21.25 17.3334 21.25H24.3334C24.7434 21.25 25.0834 21.59 25.0834 22C25.0834 22.41 24.7434 22.75 24.3334 22.75Z" fill="#BAC2CC"/>
</svg>
