<svg width="45" height="44" viewBox="0 0 45 44" fill="none" xmlns="http://www.w3.org/2000/svg">
<path opacity="0.4" d="M28.3733 23.55C27.9533 23.96 27.7133 24.55 27.7733 25.18C27.8633 26.26 28.8533 27.05 29.9333 27.05H31.8333V28.24C31.8333 30.31 30.1433 32 28.0733 32H16.5933C14.5233 32 12.8333 30.31 12.8333 28.24V21.51C12.8333 19.44 14.5233 17.75 16.5933 17.75H28.0733C30.1433 17.75 31.8333 19.44 31.8333 21.51V22.95H29.8133C29.2533 22.95 28.7433 23.17 28.3733 23.55Z" fill="#4597FF"/>
<path d="M25.1833 13.9501V17.7501H16.5933C14.5233 17.7501 12.8333 19.4401 12.8333 21.5101V17.8401C12.8333 16.6501 13.5633 15.5901 14.6733 15.1701L22.6133 12.1701C23.8533 11.7101 25.1833 12.6201 25.1833 13.9501Z" fill="#4597FF"/>
<path d="M32.8933 23.9702V26.0302C32.8933 26.5802 32.4533 27.0302 31.8933 27.0502H29.9333C28.8533 27.0502 27.8633 26.2602 27.7733 25.1802C27.7133 24.5502 27.9533 23.9602 28.3733 23.5502C28.7433 23.1702 29.2533 22.9502 29.8133 22.9502H31.8933C32.4533 22.9702 32.8933 23.4202 32.8933 23.9702Z" fill="#4597FF"/>
<path d="M24.3333 22.75H17.3333C16.9233 22.75 16.5833 22.41 16.5833 22C16.5833 21.59 16.9233 21.25 17.3333 21.25H24.3333C24.7433 21.25 25.0833 21.59 25.0833 22C25.0833 22.41 24.7433 22.75 24.3333 22.75Z" fill="#4597FF"/>
</svg>
